<svg xmlns="http://www.w3.org/2000/svg" xmlns:xlink="http://www.w3.org/1999/xlink" width="80" height="72" viewBox="0 0 80 72">
  <defs>
    <clipPath id="clip-path">
      <rect id="Rectangle_207" data-name="Rectangle 207" width="80" height="72" transform="translate(48 64)" fill="#fff" stroke="#707070" stroke-width="1"/>
    </clipPath>
    <clipPath id="clip-path-2">
      <rect id="Rectangle_208" data-name="Rectangle 208" width="72" height="72"/>
    </clipPath>
    <clipPath id="clip-Logo">
      <rect width="80" height="72"/>
    </clipPath>
  </defs>
  <g id="Logo" clip-path="url(#clip-Logo)">
    <g id="Mask_Group_4" data-name="Mask Group 4" transform="translate(-48 -64)" clip-path="url(#clip-path)">
      <g id="Custom_Size_2" data-name="Custom Size – 2" transform="translate(52 64)" clip-path="url(#clip-path-2)">
        <g id="Rectangle_1" data-name="Rectangle 1" fill="none" stroke="#000" stroke-width="2">
          <rect width="72" height="72" rx="6" stroke="none"/>
          <rect x="1" y="1" width="70" height="70" rx="5" fill="none"/>
        </g>
        <g id="Rectangle_2" data-name="Rectangle 2" transform="translate(8 8)" fill="none" stroke="#000" stroke-width="2">
          <rect width="56" height="56" rx="2" stroke="none"/>
          <rect x="1" y="1" width="54" height="54" rx="1" fill="none"/>
        </g>
        <g id="Group_1" data-name="Group 1" transform="translate(-14.912 36) rotate(-45)">
          <g id="Ellipse_1" data-name="Ellipse 1" transform="matrix(0.799, -0.602, 0.602, 0.799, 7.991, 32.064)" fill="none" stroke="#000" stroke-width="2">
            <circle cx="20" cy="20" r="20" stroke="none"/>
            <circle cx="20" cy="20" r="19" fill="none"/>
          </g>
          <path id="Rectangle_3" data-name="Rectangle 3" d="M0,0H4.8V5.6A2.4,2.4,0,0,1,2.4,8h0A2.4,2.4,0,0,1,0,5.6Z" transform="translate(33.6 17.6)"/>
          <path id="Rectangle_4" data-name="Rectangle 4" d="M0,0H4.8V5.6A2.4,2.4,0,0,1,2.4,8h0A2.4,2.4,0,0,1,0,5.6Z" transform="translate(38.4 54.4) rotate(180)"/>
        </g>
      </g>
    </g>
    <text id="S_E_B" data-name="S E B" transform="translate(27 40)" font-size="12" font-family="BioSans-Bold, Bio Sans" font-weight="700"><tspan x="0" y="0">S E B</tspan></text>
  </g>
</svg>
