<svg xmlns="http://www.w3.org/2000/svg" xmlns:xlink="http://www.w3.org/1999/xlink" width="190" height="72" viewBox="0 0 190 72">
  <defs>
    <clipPath id="clip-path">
      <rect id="Rectangle_207" data-name="Rectangle 207" width="80" height="72" transform="translate(48 64)" fill="#fff" stroke="#707070" stroke-width="1"/>
    </clipPath>
    <clipPath id="clip-path-2">
      <rect id="Rectangle_208" data-name="Rectangle 208" width="72" height="72"/>
    </clipPath>
    <clipPath id="clip-Groot_Logo">
      <rect width="190" height="72"/>
    </clipPath>
  </defs>
  <g id="Groot_Logo" data-name="Groot Logo" clip-path="url(#clip-Groot_Logo)">
    <g id="Mask_Group_4" data-name="Mask Group 4" transform="translate(-48 -64)" clip-path="url(#clip-path)">
      <g id="Custom_Size_2" data-name="Custom Size – 2" transform="translate(52 64)" clip-path="url(#clip-path-2)">
        <g id="Rectangle_1" data-name="Rectangle 1" fill="none" stroke="#000" stroke-width="2">
          <rect width="72" height="72" rx="6" stroke="none"/>
          <rect x="1" y="1" width="70" height="70" rx="5" fill="none"/>
        </g>
        <g id="Rectangle_2" data-name="Rectangle 2" transform="translate(8 8)" fill="none" stroke="#000" stroke-width="2">
          <rect width="56" height="56" rx="2" stroke="none"/>
          <rect x="1" y="1" width="54" height="54" rx="1" fill="none"/>
        </g>
        <g id="Group_1" data-name="Group 1" transform="translate(-14.912 36) rotate(-45)">
          <g id="Ellipse_1" data-name="Ellipse 1" transform="matrix(0.799, -0.602, 0.602, 0.799, 7.991, 32.064)" fill="none" stroke="#000" stroke-width="2">
            <circle cx="20" cy="20" r="20" stroke="none"/>
            <circle cx="20" cy="20" r="19" fill="none"/>
          </g>
          <path id="Rectangle_3" data-name="Rectangle 3" d="M0,0H4.8V5.6A2.4,2.4,0,0,1,2.4,8h0A2.4,2.4,0,0,1,0,5.6Z" transform="translate(33.6 17.6)"/>
          <path id="Rectangle_4" data-name="Rectangle 4" d="M0,0H4.8V5.6A2.4,2.4,0,0,1,2.4,8h0A2.4,2.4,0,0,1,0,5.6Z" transform="translate(38.4 54.4) rotate(180)"/>
        </g>
      </g>
    </g>
    <text id="S_E_B" data-name="S E B" transform="translate(27 40)" font-size="12" font-family="BioSans-Bold, Bio Sans" font-weight="700"><tspan x="0" y="0">S E B</tspan></text>
    <path id="Path_93" data-name="Path 93" d="M6.44,22.276c3.91,0,5.819-1.587,5.819-4.83,0-2.944-1.265-4.347-4.922-4.876-2.208-.322-3.013-.851-3.013-2.024,0-1.035.736-1.656,2.162-1.656,1.495,0,2.208.69,2.208,2.047h3.358c0-3.289-1.817-4.853-5.5-4.853-3.726,0-5.681,1.61-5.681,4.807,0,2.852,1.311,4.14,4.784,4.692,2.323.368,3.151.92,3.151,2.208,0,1.127-.759,1.679-2.277,1.679C4.853,19.47,4,18.8,4,17.285H.644C.644,20.712,2.461,22.276,6.44,22.276ZM27.623,9.718a3.979,3.979,0,0,0-3.427,1.7,3.336,3.336,0,0,0-3.22-1.7,3.85,3.85,0,0,0-3.4,1.748L17.48,9.994h-2.9V22h3.4V14.3c.529-1.15,1.2-1.633,2-1.633.828,0,1.311.483,1.311,1.541V22h3.4V14.3c.552-1.15,1.2-1.633,2.024-1.633s1.288.483,1.288,1.541V22h3.4V13.835C31.418,11.144,30.061,9.718,27.623,9.718Zm11.362,0c-3.312,0-4.922,1.357-5.106,4.025h3.289c.046-.828.506-1.357,1.679-1.357,1.219,0,1.7.6,1.7,1.84v.391H38.341c-3.2,0-4.784,1.4-4.784,3.933a3.432,3.432,0,0,0,3.8,3.726A4.143,4.143,0,0,0,40.963,20.5l.115,1.5h2.875V14.272C43.953,11.144,42.389,9.718,38.985,9.718Zm-.6,9.89c-.966,0-1.472-.46-1.472-1.334s.506-1.4,2.047-1.4h1.587v1.38A2.326,2.326,0,0,1,38.387,19.608ZM52.831,9.764a2.863,2.863,0,0,0-3.059,2.461l-.138-2.231h-2.9V22h3.4V15.284c.322-1.679,1.173-2.346,2.944-2.346h.644V9.764Zm7.935,9.568c-.989,0-1.265-.322-1.265-1.449V12.57h2.484V9.994H59.5V7H56.35l-.184,2.99H54.349V12.57H56.1v5.52c0,2.76,1.035,3.91,3.5,3.91H62.1V19.332ZM5.175,41.033V37.514h6.118V34.57H5.175V31.327h7.268V28.36H1.725V44H12.673V41.033ZM25.438,44,21.62,38l3.657-6H21.62l-1.886,3.473L17.6,31.994H13.616l3.657,5.75L13.455,44h3.657l2.047-3.749L21.459,44Zm6.348-2.668c-.989,0-1.265-.322-1.265-1.449V34.57h2.484V31.994H30.521V29H27.37l-.184,2.99H25.369V34.57h1.748v5.52c0,2.76,1.035,3.91,3.5,3.91H33.12V41.332Zm6.187-2.277h7.291V36.87c0-3.335-1.84-5.152-5.359-5.152-3.5,0-5.336,1.771-5.336,5.106V39.17c0,3.381,1.84,5.106,5.474,5.106,3.243,0,5.014-1.357,5.152-3.956H41.952c-.069.828-.736,1.288-1.886,1.288-1.472,0-2.093-.759-2.093-2.323Zm2.047-4.669c1.426,0,2.024.667,2.024,2.277H37.973C37.973,35.053,38.571,34.386,40.02,34.386Zm14.191-2.668a4.094,4.094,0,0,0-3.5,1.725l-.092-1.449h-2.9V44h3.4V36.249a2.345,2.345,0,0,1,2.116-1.587c.92,0,1.334.552,1.334,1.679V44h3.4V36.042C57.983,33.19,56.695,31.718,54.211,31.718ZM65.159,44.276c3.4,0,5.06-1.265,5.06-3.887,0-2.323-1.173-3.45-4.209-3.8-1.748-.207-2.369-.552-2.369-1.334,0-.69.506-1.081,1.518-1.081,1.1,0,1.564.414,1.564,1.357h3.243c0-2.484-1.61-3.818-4.784-3.818-3.151,0-4.9,1.357-4.9,3.956,0,2.277,1.173,3.289,4.14,3.634,1.794.207,2.438.575,2.438,1.426,0,.736-.552,1.081-1.679,1.081-1.311,0-1.863-.46-1.863-1.495H60.076C60.076,42.988,61.686,44.276,65.159,44.276Zm7.176-13.984h3.588v-2.9H72.335ZM72.427,44h3.4V31.994h-3.4Zm11.362.276q5.451,0,5.451-5.175V36.893q0-5.175-5.451-5.175t-5.451,5.175V39.1Q78.338,44.276,83.789,44.276Zm0-2.76c-1.449,0-2.047-.736-2.047-2.484v-2.07c0-1.748.6-2.484,2.047-2.484s2.047.736,2.047,2.484v2.07C85.836,40.78,85.238,41.516,83.789,41.516Zm14.444-9.8a4.094,4.094,0,0,0-3.5,1.725l-.092-1.449h-2.9V44h3.4V36.249a2.345,2.345,0,0,1,2.116-1.587c.92,0,1.334.552,1.334,1.679V44h3.4V36.042C102.005,33.19,100.717,31.718,98.233,31.718ZM1.725,66H8.487c3.657,0,5.313-1.357,5.313-4.393,0-2.047-.759-3.266-2.645-3.795v-.046a3.078,3.078,0,0,0,2.139-3.335c0-2.806-1.61-4.071-5.29-4.071H1.725Zm3.45-9.407V53.281H7.659c1.679,0,2.231.391,2.231,1.633,0,1.265-.6,1.679-2.415,1.679Zm0,6.486V59.514H7.613c2.047,0,2.737.46,2.737,1.817,0,1.311-.621,1.748-2.461,1.748Zm16.215,3.2q5.451,0,5.451-5.175V58.893q0-5.175-5.451-5.175t-5.451,5.175V61.1Q15.939,66.276,21.39,66.276Zm0-2.76c-1.449,0-2.047-.736-2.047-2.484v-2.07c0-1.748.6-2.484,2.047-2.484s2.047.736,2.047,2.484v2.07C23.437,62.78,22.839,63.516,21.39,63.516ZM39.514,66,35.7,60l3.657-6H35.7L33.81,57.467l-2.139-3.473H27.692l3.657,5.75L27.531,66h3.657l2.047-3.749L35.535,66Z" transform="translate(80)"/>
  </g>
</svg>
