<svg xmlns="http://www.w3.org/2000/svg" xmlns:xlink="http://www.w3.org/1999/xlink" width="168" height="48" viewBox="0 0 168 48">
  <defs>
    <clipPath id="clip-path">
      <rect id="Rectangle_186" data-name="Rectangle 186" width="168" height="48" transform="translate(24 24)" fill="#fff"/>
    </clipPath>
  </defs>
  <g id="Mask_Group_2" data-name="Mask Group 2" transform="translate(-24 -24)" clip-path="url(#clip-path)">
    <g id="Opleidingslogo_Howest_Multimedia_en_Communicatietechnologie_liggend_BLAUW_Quadri_1_" data-name="Opleidingslogo_Howest_Multimedia_en_Communicatietechnologie_liggend_BLAUW_Quadri (1)" transform="translate(26.049 24.002)">
      <path id="Path_48" data-name="Path 48" d="M127.691,97.329a.831.831,0,0,1,.8-.665.884.884,0,0,1,.824.592l.97,3.257h0l.97-3.257a.884.884,0,0,1,.824-.592.831.831,0,0,1,.8.665l.764,4.586a1.076,1.076,0,0,1,0,.14.572.572,0,0,1-.592.592.558.558,0,0,1-.665-.572l-.485-3.323h0l-.97,3.416a.665.665,0,1,1-1.329,0l-.984-3.436h0l-.485,3.323a.618.618,0,0,1-1.23,0,1.076,1.076,0,0,1,0-.14Z" transform="translate(-52.41 -63.683)" fill="#fff"/>
      <path id="Path_49" data-name="Path 49" d="M134.358,97.342a.618.618,0,1,1,1.23,0v2.865a1.256,1.256,0,0,0,1.27,1.329,1.289,1.289,0,0,0,1.256-1.329V97.342a.618.618,0,1,1,1.23,0v2.931a2.493,2.493,0,1,1-4.985,0Z" transform="translate(-52.41 -63.683)" fill="#fff"/>
      <path id="Path_50" data-name="Path 50" d="M140.2,97.342a.618.618,0,1,1,1.236,0v4.121h1.469a.558.558,0,0,1,.592.592.578.578,0,0,1-.592.545h-2.061a.611.611,0,0,1-.665-.665Z" transform="translate(-52.41 -63.683)" fill="#fff"/>
      <path id="Path_51" data-name="Path 51" d="M144.089,97.88h-.9a.532.532,0,0,1-.558-.565.552.552,0,0,1,.558-.565h3.038a.552.552,0,0,1,.558.565.532.532,0,0,1-.558.565h-.9v4.128a.618.618,0,1,1-1.23,0Z" transform="translate(-52.41 -63.683)" fill="#fff"/>
      <path id="Path_52" data-name="Path 52" d="M147.213,97.342a.618.618,0,1,1,1.23,0v4.653a.618.618,0,1,1-1.23,0Z" transform="translate(-52.41 -63.683)" fill="#fff"/>
      <path id="Path_53" data-name="Path 53" d="M149.951,97.329a.824.824,0,0,1,.8-.665.871.871,0,0,1,.818.592l.97,3.257h0l.97-3.257a.871.871,0,0,1,.818-.592.824.824,0,0,1,.8.665l.764,4.586a1.076,1.076,0,0,1,0,.14.565.565,0,0,1-.592.592c-.419,0-.578-.186-.665-.572l-.485-3.323h0l-.99,3.436a.665.665,0,1,1-1.329,0l-.957-3.456h0l-.485,3.323a.618.618,0,1,1-1.236,0,.544.544,0,0,1,0-.14Z" transform="translate(-52.41 -63.683)" fill="#fff"/>
      <path id="Path_54" data-name="Path 54" d="M156.664,97.462a.628.628,0,0,1,.665-.711h2.041a.552.552,0,0,1,.585.565.558.558,0,0,1-.585.565h-1.449v1.2h1.329a.552.552,0,0,1,.6.565.565.565,0,0,1-.6.565h-1.329v1.25h1.522a.552.552,0,0,1,.585.565.558.558,0,0,1-.585.572h-2.12a.6.6,0,0,1-.665-.618Z" transform="translate(-52.41 -63.683)" fill="#fff"/>
      <path id="Path_55" data-name="Path 55" d="M160.632,97.382a.6.6,0,0,1,.665-.631h1.329a2.728,2.728,0,0,1,2.9,3,2.659,2.659,0,0,1-2.812,2.845h-1.429a.6.6,0,0,1-.665-.618Zm1.23,4.081h.831c1.063,0,1.549-.778,1.549-1.768a1.6,1.6,0,0,0-1.628-1.815h-.751Z" transform="translate(-52.41 -63.683)" fill="#fff"/>
      <path id="Path_56" data-name="Path 56" d="M166.282,97.342a.618.618,0,1,1,1.23,0v4.653a.618.618,0,1,1-1.23,0Z" transform="translate(-52.41 -63.683)" fill="#fff"/>
      <path id="Path_57" data-name="Path 57" d="M169.772,97.329a.97.97,0,0,1,.877-.665.924.924,0,0,1,.877.665l1.615,4.473a1.057,1.057,0,0,1,.066.306.545.545,0,0,1-.572.538.572.572,0,0,1-.6-.425l-.246-.771h-2.3l-.246.764a.565.565,0,0,1-.592.432.585.585,0,0,1-.6-.572.791.791,0,0,1,.053-.273Zm.093,2.984h1.555l-.764-2.38h0Z" transform="translate(-52.41 -63.683)" fill="#fff"/>
      <path id="Path_58" data-name="Path 58" d="M176.139,97.462a.628.628,0,0,1,.665-.711H178.8a.552.552,0,0,1,.585.565.558.558,0,0,1-.585.565h-1.449v1.2h1.329a.552.552,0,0,1,.6.565.565.565,0,0,1-.6.565h-1.329v1.25h1.522a.552.552,0,0,1,.585.565.558.558,0,0,1-.585.572h-2.12a.6.6,0,0,1-.631-.618Z" transform="translate(-52.41 -63.683)" fill="#fff"/>
      <path id="Path_59" data-name="Path 59" d="M180.048,97.342a.592.592,0,0,1,.611-.665.771.771,0,0,1,.518.273l2.606,3.476h0v-3.1a.618.618,0,1,1,1.23,0v4.653a.585.585,0,0,1-.618.665.784.784,0,0,1-.518-.273l-2.6-3.43h0V102a.618.618,0,1,1-1.23,0Z" transform="translate(-52.41 -63.683)" fill="#fff"/>
      <path id="Path_60" data-name="Path 60" d="M104.122,104.354c.6,0,1.768.2,1.768.924a.525.525,0,0,1-.505.552c-.339,0-.572-.292-1.263-.292-1.017,0-1.542.864-1.542,1.868s.532,1.815,1.542,1.815c.665,0,.97-.346,1.329-.346a.578.578,0,0,1,.545.558c0,.791-1.243.97-1.854.97a3.031,3.031,0,0,1,0-6.049Z" transform="translate(-52.41 -63.683)" fill="#fff"/>
      <path id="Path_61" data-name="Path 61" d="M106.481,107.385a2.838,2.838,0,0,1,2.832-3.024,2.878,2.878,0,0,1,2.825,3.024,2.832,2.832,0,1,1-5.656,0Zm4.374,0c0-.99-.518-1.888-1.542-1.888s-1.549.9-1.549,1.888.505,1.894,1.549,1.894S110.855,108.389,110.855,107.385Z" transform="translate(-52.41 -63.683)" fill="#fff"/>
      <path id="Path_62" data-name="Path 62" d="M113.121,105.019a.831.831,0,0,1,.811-.631.871.871,0,0,1,.818.592l.97,3.25h0l.964-3.25a.877.877,0,0,1,.824-.592.818.818,0,0,1,.8.631l.764,4.586a.984.984,0,0,1,0,.14.572.572,0,0,1-.592.592c-.419,0-.578-.193-.665-.578l-.485-3.323h0l-.99,3.443a.625.625,0,0,1-.665.479.665.665,0,0,1-.665-.479l-.984-3.443h0l-.485,3.323a.58.58,0,0,1-.665.578.572.572,0,0,1-.592-.592.983.983,0,0,1,0-.14Z" transform="translate(-52.41 -63.683)" fill="#fff"/>
      <path id="Path_63" data-name="Path 63" d="M120.439,105.019a.818.818,0,0,1,.8-.631.877.877,0,0,1,.824.592l.97,3.25h0l.97-3.25a.871.871,0,0,1,.818-.592.831.831,0,0,1,.8.631l.764,4.586a.984.984,0,0,1,0,.14.572.572,0,0,1-.592.592c-.419,0-.585-.193-.665-.578l-.485-3.323h0l-.984,3.443a.665.665,0,0,1-1.329,0l-.984-3.443h0l-.485,3.323a.628.628,0,0,1-1.256-.013.983.983,0,0,1,0-.14Z" transform="translate(-52.41 -63.683)" fill="#fff"/>
      <path id="Path_64" data-name="Path 64" d="M126.78,105.052a.618.618,0,1,1,1.236,0v2.871a1.263,1.263,0,0,0,1.263,1.329,1.289,1.289,0,0,0,1.256-1.329v-2.871a.618.618,0,1,1,1.236,0v2.931a2.5,2.5,0,0,1-4.992,0Z" transform="translate(-52.41 -63.683)" fill="#fff"/>
      <path id="Path_65" data-name="Path 65" d="M132.576,105.052a.585.585,0,0,1,.618-.665.778.778,0,0,1,.518.266l2.606,3.476h0v-3.1a.618.618,0,1,1,1.236,0v4.653a.592.592,0,0,1-.618.665.784.784,0,0,1-.518-.273l-2.606-3.436h0V109.7a.618.618,0,0,1-1.236,0Z" transform="translate(-52.41 -63.683)" fill="#fff"/>
      <path id="Path_66" data-name="Path 66" d="M138.419,105.052a.618.618,0,1,1,1.236,0V109.7a.618.618,0,1,1-1.236,0Z" transform="translate(-52.41 -63.683)" fill="#fff"/>
      <path id="Path_67" data-name="Path 67" d="M143.151,104.354c.6,0,1.768.2,1.768.924a.525.525,0,0,1-.505.552c-.339,0-.572-.292-1.263-.292-1.017,0-1.542.864-1.542,1.868s.532,1.815,1.542,1.815c.665,0,.97-.346,1.329-.346a.578.578,0,0,1,.545.558c0,.791-1.243.97-1.854.97a3.031,3.031,0,0,1,0-6.049Z" transform="translate(-52.41 -63.683)" fill="#fff"/>
      <path id="Path_68" data-name="Path 68" d="M147.1,105.019a.964.964,0,0,1,.877-.665.937.937,0,0,1,.884.665l1.609,4.467a1.057,1.057,0,0,1,.066.306.552.552,0,0,1-.565.545.592.592,0,0,1-.6-.432l-.246-.771h-2.28l-.253.764a.572.572,0,0,1-.592.439.592.592,0,0,1-.6-.578.665.665,0,0,1,.06-.273Zm.093,2.984h1.562l-.764-2.386h0Z" transform="translate(-52.41 -63.683)" fill="#fff"/>
      <path id="Path_69" data-name="Path 69" d="M151.314,105.6h-.891a.532.532,0,0,1-.558-.572.545.545,0,0,1,.558-.565h3.024a.552.552,0,0,1,.558.565.538.538,0,0,1-.558.572h-.9v4.121a.618.618,0,1,1-1.236,0Z" transform="translate(-52.41 -63.683)" fill="#fff"/>
      <path id="Path_70" data-name="Path 70" d="M154.438,105.052a.618.618,0,1,1,1.236,0V109.7a.618.618,0,1,1-1.236,0Z" transform="translate(-52.41 -63.683)" fill="#fff"/>
      <path id="Path_71" data-name="Path 71" d="M156.578,105.178a.633.633,0,0,1,.665-.718h2.041a.552.552,0,0,1,.585.565.558.558,0,0,1-.585.572h-1.449v1.2h1.329a.552.552,0,0,1,.6.565.565.565,0,0,1-.6.572h-1.329v1.25h1.522a.552.552,0,0,1,.585.565.558.558,0,0,1-.585.565h-2.12a.6.6,0,0,1-.665-.612Z" transform="translate(-52.41 -63.683)" fill="#fff"/>
      <path id="Path_72" data-name="Path 72" d="M162.088,105.6H161.2a.532.532,0,0,1-.558-.572.552.552,0,0,1,.558-.565h3.024a.552.552,0,0,1,.558.565.538.538,0,0,1-.558.572h-.9v4.121a.618.618,0,1,1-1.236,0Z" transform="translate(-52.41 -63.683)" fill="#fff"/>
      <path id="Path_73" data-name="Path 73" d="M165.212,105.178a.633.633,0,0,1,.665-.718h2.034a.545.545,0,0,1,.585.565.558.558,0,0,1-.585.572h-1.442v1.2H167.8a.558.558,0,0,1,.6.565.565.565,0,0,1-.6.572h-1.329v1.25h1.515a.545.545,0,0,1,.585.565.552.552,0,0,1-.585.565H165.87a.6.6,0,0,1-.665-.612Z" transform="translate(-52.41 -63.683)" fill="#fff"/>
      <path id="Path_74" data-name="Path 74" d="M171.779,104.354c.6,0,1.768.2,1.768.924a.525.525,0,0,1-.512.552c-.332,0-.565-.292-1.256-.292-1.017,0-1.542.864-1.542,1.868s.532,1.815,1.542,1.815c.665,0,.97-.346,1.329-.346a.578.578,0,0,1,.538.558c0,.791-1.236.97-1.848.97a3.031,3.031,0,0,1,0-6.049Z" transform="translate(-52.41 -63.683)" fill="#fff"/>
      <path id="Path_75" data-name="Path 75" d="M174.371,105.052a.618.618,0,1,1,1.23,0v1.741h2.579v-1.741a.618.618,0,0,1,1.236,0V109.7a.618.618,0,1,1-1.236,0v-1.788H175.6V109.7a.618.618,0,1,1-1.23,0Z" transform="translate(-52.41 -63.683)" fill="#fff"/>
      <path id="Path_76" data-name="Path 76" d="M180.274,105.052a.585.585,0,0,1,.612-.665.764.764,0,0,1,.518.266l2.606,3.476h0v-3.1a.618.618,0,1,1,1.23,0v4.653a.592.592,0,0,1-.618.665.817.817,0,0,1-.518-.273l-2.6-3.436h0V109.7a.618.618,0,1,1-1.23,0Z" transform="translate(-52.41 -63.683)" fill="#fff"/>
      <path id="Path_77" data-name="Path 77" d="M185.883,107.385a2.838,2.838,0,0,1,2.825-3.024,2.878,2.878,0,0,1,2.831,3.024,2.832,2.832,0,1,1-5.656,0Zm4.374,0c0-.99-.518-1.888-1.549-1.888s-1.542.9-1.542,1.888.5,1.894,1.542,1.894S190.257,108.389,190.257,107.385Z" transform="translate(-52.41 -63.683)" fill="#fff"/>
      <path id="Path_78" data-name="Path 78" d="M192.211,105.052a.618.618,0,1,1,1.236,0v4.128h1.462a.558.558,0,0,1,.592.592.578.578,0,0,1-.592.538h-2.054a.6.6,0,0,1-.665-.665Z" transform="translate(-52.41 -63.683)" fill="#fff"/>
      <path id="Path_79" data-name="Path 79" d="M195.415,107.385a2.838,2.838,0,0,1,2.825-3.024,2.871,2.871,0,0,1,2.825,3.024,2.832,2.832,0,1,1-5.65,0Zm4.374,0c0-.99-.518-1.888-1.549-1.888s-1.542.9-1.542,1.888.5,1.894,1.542,1.894,1.569-.891,1.569-1.894Z" transform="translate(-52.41 -63.683)" fill="#fff"/>
      <path id="Path_80" data-name="Path 80" d="M206.316,106.847c.518,0,.724.259.724.784a2.6,2.6,0,0,1-2.659,2.778,3.031,3.031,0,0,1,0-6.049c1.236,0,2.26.585,2.26,1.163a.518.518,0,0,1-.512.572c-.558,0-.665-.6-1.748-.6s-1.549.9-1.549,1.888.505,1.894,1.549,1.894a1.289,1.289,0,0,0,1.4-1.329h-.857a.565.565,0,1,1,0-1.13Z" transform="translate(-52.41 -63.683)" fill="#fff"/>
      <path id="Path_81" data-name="Path 81" d="M207.711,105.052a.618.618,0,0,1,1.236,0V109.7a.618.618,0,1,1-1.236,0Z" transform="translate(-52.41 -63.683)" fill="#fff"/>
      <path id="Path_82" data-name="Path 82" d="M209.852,105.178a.633.633,0,0,1,.665-.718h2.041a.552.552,0,0,1,.585.565.558.558,0,0,1-.585.572h-1.449v1.2h1.329a.558.558,0,0,1,.6.565.565.565,0,0,1-.6.572h-1.329v1.25h1.522a.552.552,0,0,1,.585.565.558.558,0,0,1-.585.565h-2.12a.6.6,0,0,1-.631-.612Z" transform="translate(-52.41 -63.683)" fill="#fff"/>
      <path id="Path_83" data-name="Path 83" d="M101.636,68.349a2.56,2.56,0,1,1,5.091,0v6.926h.066c1.063-1.329,3.038-1.768,4.653-1.768,3.988,0,6.959,2.546,6.959,6.853V90.11a2.557,2.557,0,1,1-5.085,0V81.243a3.293,3.293,0,1,0-6.574,0V90.11a2.56,2.56,0,1,1-5.091,0Z" transform="translate(-52.41 -63.683)" fill="#fff"/>
      <path id="Path_84" data-name="Path 84" d="M139.476,83.364c0,5.317-3.642,9.784-9.119,9.784s-9.113-4.487-9.113-9.784c0-5.158,3.749-9.857,9.113-9.857S139.476,78.206,139.476,83.364Zm-13.141,0c0,2.439,1.27,5.125,4.021,5.125s4.028-2.659,4.028-5.125-1.236-5.191-4.028-5.191-4.021,2.752-4.021,5.191Z" transform="translate(-52.41 -63.683)" fill="#fff"/>
      <path id="Path_85" data-name="Path 85" d="M141.1,78.173a7.105,7.105,0,0,1-.532-2.406,2.291,2.291,0,0,1,2.546-2.047,2.419,2.419,0,0,1,2.4,1.994l2.938,9.718h.066l2.971-9.5c.386-1.376,1.09-2.227,2.579-2.227s2.187.851,2.579,2.227l2.964,9.5h.073l2.931-9.718a2.419,2.419,0,0,1,2.4-1.994,2.36,2.36,0,0,1,2.546,2.473,6.767,6.767,0,0,1-.5,1.908l-4.34,12.257c-.532,1.489-1.416,2.579-3.077,2.579a2.906,2.906,0,0,1-2.931-2.366l-2.612-8.2h-.073l-2.612,8.2a2.906,2.906,0,0,1-2.931,2.366c-1.662,0-2.546-1.09-3.077-2.579Z" transform="translate(-52.41 -63.683)" fill="#fff"/>
      <path id="Path_86" data-name="Path 86" d="M174.059,85.025c.352,2.506,2.439,3.676,4.806,3.676,2.612,0,4.413-2.054,5.756-2.054a2.26,2.26,0,0,1,2.087,2.193c0,2.187-4.52,4.307-8.3,4.307-5.723,0-9.538-4.168-9.538-9.784,0-5.158,3.742-9.857,9.113-9.857,5.51,0,9.153,5.018,9.153,9.259,0,1.515-.665,2.26-2.227,2.26Zm7.976-3.39c-.279-2.227-1.695-3.888-4.061-3.888a4.1,4.1,0,0,0-4.028,3.888Z" transform="translate(-52.41 -63.683)" fill="#fff"/>
      <path id="Path_87" data-name="Path 87" d="M200.34,79.442c-.95,0-2.891-1.482-4.553-1.482-.917,0-1.735.425-1.735,1.416,0,2.366,8.834,1.994,8.834,7.8,0,3.39-2.858,5.982-7.238,5.982-2.865,0-7.105-1.622-7.105-3.922a2.4,2.4,0,0,1,2.193-2.26c1.994,0,2.858,1.735,5.264,1.735,1.555,0,1.994-.5,1.994-1.449,0-2.333-8.834-1.994-8.834-7.81,0-3.529,2.865-5.936,6.886-5.936,2.512,0,6.361,1.17,6.361,3.676a2.2,2.2,0,0,1-2.067,2.247Z" transform="translate(-52.41 -63.683)" fill="#fff"/>
      <path id="Path_88" data-name="Path 88" d="M207.339,78.385h-1.13a2.06,2.06,0,0,1-2.227-2.227,2.18,2.18,0,0,1,2.227-2.227h1.13V70.894a2.557,2.557,0,1,1,5.085,0v3.038h1.449c1.329,0,2.439.6,2.439,2.227s-1.13,2.227-2.439,2.227h-1.449V90.11a2.557,2.557,0,1,1-5.085,0Z" transform="translate(-52.41 -63.683)" fill="#fff"/>
      <path id="Path_89" data-name="Path 89" d="M81.343,99.841,73.978,103.9l-7.365-4.061v8.5l4.413,2.546a5.889,5.889,0,0,0,5.9,0l4.413-2.546Z" transform="translate(-52.41 -63.683)" fill="#fff"/>
      <path id="Path_90" data-name="Path 90" d="M92.6,73.513,76.93,64.474a5.889,5.889,0,0,0-5.9,0l-15.666,9.04a5.9,5.9,0,0,0-2.951,5.111V96.717a5.889,5.889,0,0,0,2.951,5.111l2.725,1.575V79.628a1.27,1.27,0,0,1,1.908-1.1l14,7.883L87.95,78.525a1.27,1.27,0,0,1,1.908,1.1V103.4l2.725-1.575a5.889,5.889,0,0,0,2.951-5.111V78.625A5.9,5.9,0,0,0,92.6,73.513Z" transform="translate(-52.41 -63.683)" fill="#fff"/>
    </g>
  </g>
</svg>
