<svg xmlns="http://www.w3.org/2000/svg" width="28.772" height="32" viewBox="0 0 28.772 32">
  <g id="Opleidings-SYMBOOL_Howest-Multimedia_en_Communicatietechnologie_BLAUW_Quadri" transform="translate(0 0)">
    <path id="Path_46" data-name="Path 46" d="M24.76,27.956l-4.91,2.708-4.91-2.708v5.663l2.942,1.7a3.935,3.935,0,0,0,3.935,0l2.943-1.7Z" transform="translate(-5.466 -3.844)" fill="#fff"/>
    <path id="Path_47" data-name="Path 47" d="M32.266,10.4,21.817,4.371a3.935,3.935,0,0,0-3.935,0L7.434,10.4a3.937,3.937,0,0,0-1.968,3.409V25.877a3.936,3.936,0,0,0,1.968,3.408l1.819,1.05V14.477a.848.848,0,0,1,1.272-.734L19.861,19l9.317-5.257a.848.848,0,0,1,1.273.734V30.335l1.819-1.05a3.936,3.936,0,0,0,1.968-3.408V13.812A3.937,3.937,0,0,0,32.266,10.4Z" transform="translate(-5.466 -3.844)" fill="#fff"/>
  </g>
</svg>
