<svg xmlns="http://www.w3.org/2000/svg" xmlns:xlink="http://www.w3.org/1999/xlink" width="360" height="360" viewBox="0 0 360 360">
  <defs>
    <clipPath id="clip-Custom_Size_1">
      <rect width="360" height="360"/>
    </clipPath>
  </defs>
  <g id="Custom_Size_1" data-name="Custom Size – 1" clip-path="url(#clip-Custom_Size_1)">
    <g id="Rectangle_1" data-name="Rectangle 1" fill="none" stroke="#0f2" stroke-width="10">
      <rect width="360" height="360" rx="30" stroke="none"/>
      <rect x="5" y="5" width="350" height="350" rx="25" fill="none"/>
    </g>
    <g id="Rectangle_2" data-name="Rectangle 2" transform="translate(40 40)" fill="none" stroke="#0f2" stroke-width="10">
      <rect width="280" height="280" rx="10" stroke="none"/>
      <rect x="5" y="5" width="270" height="270" rx="5" fill="none"/>
    </g>
    <g id="Ellipse_1" data-name="Ellipse 1" transform="translate(80 80)" fill="none" stroke="#0f2" stroke-width="10">
      <circle cx="100" cy="100" r="100" stroke="none"/>
      <circle cx="100" cy="100" r="95" fill="none"/>
    </g>
    <path id="Rectangle_3" data-name="Rectangle 3" d="M0,0H24a0,0,0,0,1,0,0V28A12,12,0,0,1,12,40h0A12,12,0,0,1,0,28V0A0,0,0,0,1,0,0Z" transform="translate(168 88)" fill="#0f2"/>
    <path id="Rectangle_4" data-name="Rectangle 4" d="M0,0H24a0,0,0,0,1,0,0V28A12,12,0,0,1,12,40h0A12,12,0,0,1,0,28V0A0,0,0,0,1,0,0Z" transform="translate(192 272) rotate(180)" fill="#0f2"/>
    <g id="Ellipse_2" data-name="Ellipse 2" transform="translate(120 160)" fill="none" stroke="#0f2" stroke-width="10">
      <circle cx="16" cy="16" r="16" stroke="none"/>
      <circle cx="16" cy="16" r="11" fill="none"/>
    </g>
    <g id="Ellipse_3" data-name="Ellipse 3" transform="translate(120 160)" fill="none" stroke="#0f2" stroke-width="10">
      <circle cx="16" cy="16" r="16" stroke="none"/>
      <circle cx="16" cy="16" r="11" fill="none"/>
    </g>
    <g id="Ellipse_4" data-name="Ellipse 4" transform="translate(208 160)" fill="none" stroke="#0f2" stroke-width="10">
      <circle cx="16" cy="16" r="16" stroke="none"/>
      <circle cx="16" cy="16" r="11" fill="none"/>
    </g>
  </g>
</svg>
